<?xml version="1.0" standalone="no"?>
<!DOCTYPE svg PUBLIC "-//W3C//DTD SVG 20010904//EN"
 "http://www.w3.org/TR/2001/REC-SVG-20010904/DTD/svg10.dtd">
<svg version="1.0" xmlns="http://www.w3.org/2000/svg"
 width="200.000000pt" height="200.000000pt" viewBox="0 0 200.000000 200.000000"
 preserveAspectRatio="xMidYMid meet">
<metadata>
Created by potrace 1.11, written by Peter Selinger 2001-2013
</metadata>
<g transform="translate(0.000000,200.000000) scale(0.100000,-0.100000)"
fill="#000000" stroke="none">
<path d="M1185 1774 c-99 -68 -187 -122 -195 -120 -8 1 -93 56 -188 120 l-173
117 2 -187 2 -187 38 -26 c21 -14 38 -29 39 -33 0 -3 -16 -16 -35 -28 l-35
-22 0 -188 0 -188 46 -29 45 -30 -48 -31 -48 -31 -3 -185 c-2 -103 0 -186 3
-186 3 0 86 54 185 120 99 66 183 120 188 120 5 0 86 -52 180 -115 94 -63 174
-115 177 -115 8 0 4 370 -4 370 -3 0 -21 13 -40 29 l-34 28 37 22 36 23 0 188
0 188 -45 29 -46 30 43 29 c24 16 46 32 49 37 6 8 13 378 7 376 -2 0 -84 -56
-183 -125z m-147 -533 l43 -28 -36 -27 -35 -27 -46 32 -46 31 34 24 c18 12 35
23 38 23 3 1 24 -12 48 -28z"/>
<path d="M783 438 c-6 -7 -25 -51 -42 -98 -65 -173 -83 -210 -103 -210 -10 0
-18 -7 -18 -15 0 -12 14 -15 69 -15 72 0 100 14 59 29 -13 5 -26 7 -30 4 -12
-6 -9 18 6 52 12 28 15 29 79 30 l67 1 14 -43 c15 -43 15 -43 -10 -43 -15 0
-24 -6 -24 -15 0 -13 23 -15 150 -15 127 0 150 2 150 15 0 10 -10 15 -30 15
-33 0 -34 1 -16 50 l13 34 67 1 c73 1 70 3 90 -62 6 -20 4 -23 -18 -23 -16 0
-26 -6 -26 -15 0 -12 16 -15 80 -15 66 0 78 2 74 15 -4 8 -14 15 -23 15 -12 0
-33 43 -79 160 -62 154 -65 160 -91 158 -26 -2 -31 -12 -87 -157 l-59 -156
-43 0 -43 0 -26 65 c-14 36 -39 101 -56 145 -37 94 -44 105 -67 105 -10 0 -22
-6 -27 -12z m45 -115 c12 -38 22 -71 22 -74 0 -10 -95 -3 -95 7 0 17 40 134
46 134 3 0 15 -30 27 -67z m386 -5 c14 -37 22 -69 18 -71 -6 -3 -85 -2 -96 2
-4 1 16 66 39 130 7 19 10 15 39 -61z"/>
</g>
</svg>
